<?xml version="1.0"?>
<svg xmlns="http://www.w3.org/2000/svg" xmlns:xlink="http://www.w3.org/1999/xlink" xmlns:svgjs="http://svgjs.com/svgjs" version="1.1" width="512px" height="512px" x="0" y="0" viewBox="0 0 499.508 499.508" style="enable-background:new 0 0 512 512" xml:space="preserve" class=""><g>
<g>
	<path d="M448.784,144.618h-130.5l37.71-17.34c43.917-20.181,50.859-80.336,15.68-111.11c-35.924-31.415-92.565-14.756-105.63,31.26   l-16.3,57.33l-16.29-57.33c-13.002-45.744-69.126-61.897-103.96-32.89c-34.979,29.12-32.858,91.209,14,112.74l37.72,17.34H50.724   c-8.28,0-15,6.72-15,15v89.89c0,8.29,6.72,15,15,15h15.27v220c0,8.29,6.72,15,15,15c7.656,0,330.371,0,337.52,0   c8.28,0,15-6.71,15-15v-220h15.27c8.28,0,15-6.71,15-15v-89.89C463.784,151.338,457.064,144.618,448.784,144.618z M148.694,37.588   c17.888-14.893,48.725-7.237,55.9,18.05l21.81,76.74l-70.38-32.35C129.429,87.781,130.582,52.668,148.694,37.588z M351.924,38.748   c18.347,16.049,16.23,49.909-8.46,61.28l-70.38,32.35l21.81-76.74C302.07,30.371,332.838,22.071,351.924,38.748z M65.724,174.618   h124.32v59.89H65.724V174.618z M220.044,174.618h59.42c0,5.982,0,279.697,0,294.89h-59.42   C220.044,462.958,220.044,177.227,220.044,174.618z M433.784,234.508h-124.32v-59.89h124.32V234.508z M95.994,264.778h94.05v204.73   h-94.05V264.778z M403.514,469.508h-94.05v-204.73h94.05V469.508z" fill="#ffffff" data-original="#000000" class=""/>
</g>















</g></svg>
