<?xml version="1.0"?>
<svg xmlns="http://www.w3.org/2000/svg" xmlns:xlink="http://www.w3.org/1999/xlink" xmlns:svgjs="http://svgjs.com/svgjs" version="1.1" width="512px" height="512px" x="0" y="0" viewBox="0 0 16.933333 16.933334" style="enable-background:new 0 0 512 512" xml:space="preserve" class=""><g><g id="layer1"><path id="path7579" d="m8.4666765.52906556c-.5875699 0-1.0588597.47591994-1.0588597 1.05726994 0 .58136.4712898 1.05935 1.0588597 1.05935.58755 0 1.05885-.47799 1.05885-1.05935 0-.58135-.4713-1.05726994-1.05885-1.05726994zm0 .52914994c.28917 0 .52968.23275.52968.52812 0 .29538-.23947.53019-.52968.53019-.29023 0-.5296899-.23481-.5296899-.53019 0-.29537.2404999-.52812.5296899-.52812zm-1.7792299 1.05829-3.54293 1.6344901c-.3192101.1402799-.1050301.62988.2216799.4805801l3.5434601-1.6344901c.24701-.11026.18288-.4859101-.09352-.5058901-.04442-.00299-.08852.00601-.12869.02531zm6.8797104 2.1150901c.32672.1493001.5409-.3403.22169-.4805799l-3.54293-1.6344902c-.0401-.0192-.0843-.0278-.128695-.02531-.2764355.01999-.3405555.39563-.09352.5058901zm-5.7939903-.6836601c-.1976102.0957-.2707.2433601-.3141901.3477702-.0435.10442-.0606.16343-.1152401.2304799-.0547.067-.1544097.1526802-.3849899.2501-.23143.0978-.36615.11161-.4552699.1054201-.0891-.006-.14249-.033-.2439101-.0723-.1014201-.0394-.2594599-.0899-.4552701-.025299-.17687.0583-.3511899.1987801-.5446699.3948001-.20988.21262-.33664.3881099-.3870601.5487901-.0612.1951098-.006.3522397.0351.4526698.0413.10044.0688.15431.0765.2423601.008.0881-.004.22337-.0977.4552599-.0941.2318901-.1791401.3365902-.2459802.3942799-.0668.0577-.1240798.0755-.2227199.1173102-.1282999.0543-.2567001.13022-.3420999.2950599-.0776.14986-.10937.3597201-.10697.65214-.00201.26865.021799.48778.10697.65215.0854.1648402.2144699.241.3420999.2950602.0986.0418.1527799.0586.21962.1162698.0668.0577.15494.1634302.2490801.39532.0924.22742.1043699.3617302.0977.44957-.007.0879-.0326.14097-.0724.2361603-.048.1147-.0927.2581-.047.43356.0336.128961.1018001.247081.2118699.380841-.1801.29551-.3216698.6098-.42013.9498-.1910497-.282321-.4421698-.505411-.7399998-.668681.1978099-.2316.3162599-.53098.3162599-.85833 0-.7274807-.5876798-1.3234007-1.3224-1.3234007-.73473 0-1.32447.59592-1.32447 1.3234007 0 .32773.11915.62662.31781.85833-.66487.35835-1.10999994 1.06026-1.10999994 1.86909v.31057c0 .66273.53449994 1.19525 1.19010994 1.19525h1.8515601c.2447901 0 .4727199-.0732.6625-.20153v.99733c0 .31766.0998.6288.3420901.83352.2422499.20472.5966.26856 1.0020099.18965.006-.001.0118-.003.0176-.004l2.6055299-.701231 2.6158605.703301c.41419.0809.75859.0256 1.01182-.187581.24221-.203949.34262-.513879.34262-.829909v-.99995c.18977.12829.41771.200499.66249.200499h1.85156c.65561 0 1.19011-.53252 1.19011-1.195249v-.31057c0-.80883-.44513-1.510741-1.11001-1.86909.19867-.231711.31781-.530601.31781-.858331 0-.72748-.58973-1.32341-1.32446-1.32341s-1.3224.59593-1.3224 1.32341c0 .32735.11844.62673.31626.858331-.29577.159129-.54999.38739-.74104.669709-.0985-.33996-.23946-.657409-.41962-.9529.1102-.13387.1788-.249719.21239-.378769.0457-.175471.000953-.318861-.047-.433561-.0397-.095199-.0656-.1483099-.0724-.2361601-.007-.0878.005-.2221499.0977-.4495699.0941-.2318898.18225-.33762.24908-.3953201.0668-.0577.12099-.0745.21963-.1162698.12763-.0541.2567-.13022.3421-.2950601.0852-.1643701.10918-.3835001.10697-.6521501.002-.2924199-.0293-.50228-.10697-.65214-.0854-.1648499-.2138-.24072-.3421-.2950599-.0986-.0418-.15588-.0596-.22272-.1173101-.0668-.0577-.15186-.1623899-.24598-.39428-.0941-.2318898-.10535-.3672099-.0977-.4552598.008-.088.0352-.1419201.0765-.2423602.0413-.10043.0964-.25756.0351-.4526701-.0504-.1606798-.17717-.3361698-.38705-.5487897-.19349-.19602-.3678-.3364503-.54467-.3948002-.19581-.0646-.35385-.0141-.45527.0253s-.1548.0661-.24392.0723c-.0891.006-.22384-.008-.4552705-.10542-.23057-.0974-.33032-.1830599-.38499-.2501101-.0547-.067-.0717-.1260499-.11523-.2304698-.0435-.1044107-.11659-.2520307-.3142-.3477707-.17143-.0831-.377-.1090398-.693465-.1090897-.316475-.0000499-.5220349.025951-.6934748.1089899zm-6.1856702.1555401c-.58756994 0-1.05832994.4759201-1.05832994 1.05728 0 .5813502.47076 1.0593401 1.05832994 1.0593401.58757 0 1.05885-.4779899 1.05885-1.0593401 0-.5813599-.47128-1.05728-1.05885-1.05728zm13.7583305 0c-.58757 0-1.05885.4759201-1.05885 1.05728 0 .5813502.47128 1.0593401 1.05885 1.0593401s1.05834-.4779899 1.05834-1.0593401c0-.5813599-.47077-1.05728-1.05834-1.05728zm-6.4161405.3193802c.0364.0176.04.046.0568.078.0293.0703.0744.21335.19327.3591399.11887.1457801.30172.2838402.58756.4046201.2850105.1204201.5118305.1592501.6991905.14624.18736-.012999.32596-.0786.40049-.1074899.0443-.017201.0666-.0271.0956-.0176.038.012599.13451.0616.33434.26406.19059.19308.24614.2985101.25787.3358899.008.0313-.005.059-.0196.0935-.025.0607-.0969.2094201-.11317.3963501-.0163.18694.0182.41514.13436.70124.11612.2861001.24837.47298.39067.5958099.1423.1228403.28745.17369.36173.2051601.042.017801.0618.019399.078.0506.0162.0313.053.1348401.0506.4082301.002.25732-.0289.3662899-.0506.4082399-.0162.0313-.0456.0369-.078.0506-.0743.0315-.21943.0823-.36173.20515-.1423.1228301-.27455.3097202-.39067.5958202-.11389.2805798-.1485.50424-.13436.6893499.0141.1851.0746.31104.1111.39841.0155.0437.0309.0682.0233.0977-.002.008-.0135.0362-.0238.0558-.39219-.47501-.89634-.8594202-1.46915-1.1099801.32543-.3726299.52037-.85862.52037-1.39059 0-1.16587-.9513105-2.1166201-2.1171705-2.1166201-1.1658805 0-2.1171803.9507501-2.1171803 2.1166201 0 .5320898.1947899 1.0179299.5203798 1.39059-.57287.25044-1.07706.6350101-1.4691601 1.1099801-.0102-.0196-.0216-.0475-.023799-.0558-.008-.0295.008-.054.023299-.0977.0365-.0874.097-.21331.1110998-.39842.0141-.1850999-.0205-.4087601-.1343599-.6893399-.11612-.2861-.2483699-.4729901-.39067-.5958202-.1423-.1228299-.28746-.17369-.3617301-.20515-.0325-.0137-.0618-.019399-.078-.0506-.021701-.0419-.0528-.1509199-.0506-.4082399-.00201-.27339.0344-.37694.0506-.4082301.016201-.0313.036-.0328.078-.0506.0743-.0315.2194301-.0823.3617301-.2051601.1423001-.1228299.27455-.3097098.39067-.5958099.1161299-.2861.15068-.5143.1343599-.70124-.016301-.18693-.0882-.3356801-.1131699-.3963501-.0142-.0346-.028-.0623-.0196-.0935.0117-.0374.0673-.1428099.2578701-.3358899.19983-.2024401.2963302-.25151.33435-.26406.029-.01.0513.0003704.0956.0176.0745.0289.2131401.0945.40049.1074899.1873501.012999.41417-.0258.6991799-.14624.2858498-.12078.4686898-.2588401.5875597-.4046202.1188701-.1457899.1640001-.2888898.1932702-.3591399.016899-.032.020399-.0604.0569-.078.0426-.020701.18198-.0548.4629554-.0548.2809654 0 .4203054.0341.4629554.0548zm-7.34219.2097799c.28918 0 .52968.2327399.52968.5281199 0 .2953801-.23946.5301901-.52968.5301901s-.52917-.23481-.52917-.5301901c0-.29538.23999-.5281199.52917-.5281199zm13.7583305 0c.28919 0 .52917.2327399.52917.5281199 0 .2953801-.23895.5301901-.52917.5301901-.29021 0-.52968-.23481-.52968-.5301901 0-.29538.2405-.5281199.52968-.5281199zm-13.2818705 2.01843c-.18203-.0114-.3208.16035-.27131.3358899l.46509 1.7616202c.0812.3551798.6154401.21487.5116-.1343599l-.46509-1.7616102c-.0274-.1125201-.12473-.19418-.24029-.20154zm12.8054205 0c-.11557.007-.21293.089-.2403.20154l-.46509 1.7616102c-.10383.3492299.43043.4895397.5116.1343599l.46509-1.7616202c.0495-.1755399-.0893-.34734-.2713-.3358899zm-6.4027105.0987c.87161 0 1.5880105.7075602 1.5880105 1.5874702 0 .8799099-.7133005 1.5879799-1.5880105 1.5879799-.8747198 0-1.5880198-.70807-1.5880198-1.5879799 0-.87991.7153701-1.5874702 1.5880198-1.5874702zm-5.55625 3.1744201c.4352999 0 .79271.3527502.79271.7942502s-.35637.79321-.79271.79321c-.43635 0-.79479-.35171-.79479-.79321s.35948-.7942502.79479-.7942502zm11.1125005 0c.4353 0 .79478.3527502.79478.7942502s-.35844.79321-.79478.79321c-.43635 0-.79272-.35171-.79272-.79321s.35741-.7942502.79272-.7942502zm-7.4078205 4.3536402v-.9162c-.008-.34503-.5215099-.34503-.5291698 0v1.05211l-.0661.017c-.3425.0872-.2117602.60086.1307398.51365l3.9997605-1.0273c.30511-.0784.6021.0982.67955.3886.0787.29377-.0916.59909-.39223.68004l-4.6973905 1.26553c-.00101.0002-.00101-.0002-.00201 0-.3004698.0579-.46204.005-.5565597-.0744-.0949-.0802-.1539902-.21866-.1539902-.42942v-2.38275c0-1.50844.9619001-2.78123 2.2934002-3.2467601.3294398.21185.7244597.3364101 1.1456597.3364101.42091 0 .81481-.12431 1.14412-.3358902 1.3402705.4685602 2.2954605 1.7377702 2.2954605 3.2462402v2.38637c.00001.20828-.0596.34591-.15451.4258-.0945.0796-.25608.13232-.55655.0744l-1.7105015-.46042 1.0893405-.29352c.57491-.15479.9217-.74485.76585-1.3265-.0772-.28824-.25982-.51346-.49248-.65111v-.15813c-.008-.34503-.52151-.34193-.52917.009-.0798-.006-.20004.007-.300795.03286zm2.91042-2.50108c-.34504.008-.34504.5215 0 .52915h.7927105c.34504-.008.34504-.52149 0-.52915zm-7.12773.16019c.1474.0643.33314.10387.51263.10387.1794901 0 .3581601-.0396.51366-.10387.6282902.21105 1.07384.81147 1.07384 1.50892v.31057c0 .3685-.29206.6661-.6625.6661h-1.85156c-.37043-.00001-.66094-.3012-.66094-.6661v-.31057c0-.6985.44615-1.29755 1.07487-1.50892zm11.1114605 0c.1493.0653.33419.10439.51367.10439s.36005-.037.51263-.10439c.62872.21137 1.07487.81042 1.07487 1.50892v.31057c0 .3649-.29051.66609-.66095.6661h-1.85156c-.37043 0-.66249-.3012-.66249-.6661v-.31057c0-.69745.44554-1.29787 1.07383-1.50892z" font-variant-ligatures="normal" font-variant-position="normal" font-variant-caps="normal" font-variant-numeric="normal" font-variant-alternates="normal" font-feature-settings="normal" text-indent="0" text-align="start" text-decoration-line="none" text-decoration-style="solid" text-decoration-color="rgb(0,0,0)" text-transform="none" text-orientation="mixed" white-space="normal" shape-padding="0" isolation="auto" mix-blend-mode="normal" solid-color="rgb(0,0,0)" solid-opacity="1" vector-effect="none" fill="#ffffff" data-original="#000000" class=""/></g></g></svg>
