<?xml version="1.0"?>
<svg xmlns="http://www.w3.org/2000/svg" xmlns:xlink="http://www.w3.org/1999/xlink" xmlns:svgjs="http://svgjs.com/svgjs" version="1.1" width="512px" height="512px" x="0" y="0" viewBox="0 0 256 256" style="enable-background:new 0 0 512 512" xml:space="preserve" class=""><g><path d="m60.731 198.126a40.353 40.353 0 1 1 40.352-40.352 40.4 40.4 0 0 1 -40.352 40.352zm0-70.7a30.353 30.353 0 1 0 30.352 30.353 30.386 30.386 0 0 0 -30.352-30.358z" fill="#ffffff" data-original="#000000" class=""/><path d="m109.953 256h-98.441a5 5 0 0 1 -5-5v-10.113c0-21.5 16.9-36.519 41.108-36.519h26.225c24.2 0 41.108 15.017 41.108 36.519v10.113a5 5 0 0 1 -5 5zm-93.441-10h88.441v-5.113c0-18.319-15.624-26.519-31.108-26.519h-26.225c-15.484 0-31.108 8.2-31.108 26.519z" fill="#ffffff" data-original="#000000" class=""/><path d="m128 256a5 5 0 0 1 0-10 118 118 0 1 0 -118-118 5 5 0 0 1 -10 0 128 128 0 1 1 128 128z" fill="#ffffff" data-original="#000000" class=""/><path d="m157.491 150.031a4.985 4.985 0 0 1 -2.5-.671l-29.5-17.03a5 5 0 0 1 -2.491-4.33v-70.389a5 5 0 1 1 10 0v67.5l27 15.589a5 5 0 0 1 -2.5 9.331z" fill="#ffffff" data-original="#000000" class=""/><path d="m128 232.335a5 5 0 0 1 0-10 94.369 94.369 0 1 0 -93.212-108.944 5 5 0 1 1 -9.881-1.536 104.342 104.342 0 1 1 103.093 120.48z" fill="#ffffff" data-original="#000000" class=""/></g></svg>
