<?xml version="1.0"?>
<svg xmlns="http://www.w3.org/2000/svg" xmlns:xlink="http://www.w3.org/1999/xlink" xmlns:svgjs="http://svgjs.com/svgjs" version="1.1" width="512px" height="512px" x="0" y="0" viewBox="0 0 512 512" style="enable-background:new 0 0 512 512" xml:space="preserve"><g><path d="m151.218 176.647c3.905-3.904 10.237-3.904 14.143 0l33.954 33.954c3.905 3.905 3.905 10.237 0 14.143-1.953 1.952-4.512 2.929-7.071 2.929s-5.119-.977-7.071-2.929l-33.954-33.954c-3.906-3.905-3.906-10.237-.001-14.143zm168.538 51.026c2.559 0 5.119-.977 7.071-2.929l33.954-33.954c3.905-3.905 3.905-10.237 0-14.143-3.905-3.904-10.237-3.904-14.143 0l-33.954 33.954c-3.905 3.905-3.905 10.237 0 14.143 1.954 1.952 4.513 2.929 7.072 2.929zm-88.722 109.313c-4.782-2.76-10.898-1.123-13.66 3.66l-24.009 41.585c-2.762 4.783-1.123 10.898 3.66 13.66 1.575.909 3.294 1.342 4.991 1.342 3.456 0 6.817-1.794 8.669-5.002l24.009-41.585c2.762-4.783 1.123-10.898-3.66-13.66zm83.942 58.906c4.783-2.762 6.422-8.877 3.66-13.66l-24.009-41.585c-2.762-4.783-8.877-6.423-13.66-3.66-4.783 2.762-6.422 8.877-3.66 13.66l24.009 41.585c1.852 3.208 5.213 5.002 8.669 5.002 1.696-.001 3.416-.433 4.991-1.342zm76.081-357.995c0-20.896 17.003-37.897 37.902-37.897s37.901 17.001 37.901 37.897c0 20.898-17.002 37.901-37.901 37.901-20.899.001-37.902-17.002-37.902-37.901zm20 0c0 9.871 8.031 17.901 17.902 17.901s17.901-8.03 17.901-17.901c0-9.869-8.031-17.897-17.901-17.897-9.871 0-17.902 8.028-17.902 17.897zm88.268 111.75c0 25.837-37.907 35.005-70.369 35.005s-70.369-9.168-70.369-35.005c0-38.8 31.568-70.366 70.371-70.366 38.801 0 70.367 31.567 70.367 70.366zm-20 0c0-27.772-22.594-50.366-50.366-50.366-27.775 0-50.371 22.594-50.371 50.366 0 6.118 19.622 15.005 50.369 15.005s50.368-8.886 50.368-15.005zm-396.282 35.005c-32.461 0-70.369-9.168-70.369-35.005 0-38.8 31.568-70.366 70.371-70.366 38.8 0 70.367 31.566 70.367 70.366 0 25.837-37.907 35.005-70.369 35.005zm0-20c30.747 0 50.369-8.887 50.369-15.005 0-27.772-22.594-50.366-50.367-50.366-27.774 0-50.371 22.594-50.371 50.366.001 6.119 19.622 15.005 50.369 15.005zm-37.899-126.755c0-20.896 17.002-37.897 37.901-37.897s37.901 17.001 37.901 37.897c0 20.898-17.002 37.901-37.901 37.901s-37.901-17.002-37.901-37.901zm20 0c0 9.871 8.031 17.901 17.901 17.901s17.901-8.03 17.901-17.901c0-9.869-8.031-17.897-17.901-17.897s-17.901 8.028-17.901 17.897zm312.438 289.451c20.899 0 37.901 17.001 37.901 37.897 0 20.898-17.002 37.901-37.901 37.901s-37.902-17.003-37.902-37.901c0-20.896 17.003-37.897 37.902-37.897zm-17.902 37.897c0 9.871 8.031 17.901 17.902 17.901s17.901-8.03 17.901-17.901c0-9.869-8.031-17.897-17.901-17.897-9.871 0-17.902 8.028-17.902 17.897zm88.269 111.75c0 25.837-37.907 35.005-70.369 35.005-32.461 0-70.369-9.168-70.369-35.005 0-38.8 31.568-70.366 70.371-70.366 38.8 0 70.367 31.566 70.367 70.366zm-20 0c0-27.772-22.594-50.366-50.367-50.366-27.775 0-50.371 22.594-50.371 50.366 0 6.118 19.622 15.005 50.369 15.005s50.369-8.887 50.369-15.005zm-223.164 0c0 25.837-37.907 35.005-70.369 35.005s-70.369-9.168-70.369-35.005c0-38.8 31.568-70.366 70.371-70.366 38.8 0 70.367 31.566 70.367 70.366zm-20 0c0-27.772-22.594-50.366-50.367-50.366-27.774 0-50.371 22.594-50.371 50.366 0 6.118 19.622 15.005 50.369 15.005s50.369-8.887 50.369-15.005zm-50.367-149.647c20.899 0 37.901 17.001 37.901 37.897 0 20.898-17.002 37.901-37.901 37.901s-37.902-17.003-37.902-37.901c0-20.896 17.003-37.897 37.902-37.897zm0 20c-9.871 0-17.902 8.028-17.902 17.897 0 9.871 8.031 17.901 17.902 17.901s17.901-8.03 17.901-17.901c0-9.869-8.03-17.897-17.901-17.897zm83.683-169.963c0-20.896 17.002-37.897 37.901-37.897s37.902 17.001 37.902 37.897c0 20.898-17.002 37.901-37.902 37.901-20.899 0-37.901-17.003-37.901-37.901zm20 0c0 9.871 8.031 17.901 17.901 17.901 9.871 0 17.902-8.03 17.902-17.901 0-9.869-8.031-17.897-17.902-17.897-9.871-.001-17.901 8.028-17.901 17.897zm17.899 146.755c-32.461 0-70.369-9.167-70.369-35.004 0-38.801 31.568-70.367 70.371-70.367 38.8 0 70.367 31.566 70.367 70.367 0 25.837-37.908 35.004-70.369 35.004zm50.369-35.004c0-27.772-22.594-50.367-50.367-50.367-27.774 0-50.371 22.595-50.371 50.367 0 6.117 19.622 15.004 50.369 15.004s50.369-8.887 50.369-15.004z" fill="#ffffff" data-original="#000000"/></g></svg>
